<?xml version="1.0" encoding="UTF-8" standalone="no"?>
<!-- Created with Inkscape (http://www.inkscape.org/) -->

<svg
   width="210mm"
   height="297mm"
   viewBox="0 0 210 297"
   version="1.1"
   id="svg1"
   xml:space="preserve"
   inkscape:version="1.4.2 (f4327f4, 2025-05-13)"
   sodipodi:docname="Airship05 Al Bhed Psyches room.svg"
   xmlns:inkscape="http://www.inkscape.org/namespaces/inkscape"
   xmlns:sodipodi="http://sodipodi.sourceforge.net/DTD/sodipodi-0.dtd"
   xmlns="http://www.w3.org/2000/svg"
   xmlns:svg="http://www.w3.org/2000/svg"><sodipodi:namedview
     id="namedview1"
     pagecolor="#ffffff"
     bordercolor="#000000"
     borderopacity="0.25"
     inkscape:showpageshadow="2"
     inkscape:pageopacity="0.0"
     inkscape:pagecheckerboard="0"
     inkscape:deskcolor="#d1d1d1"
     inkscape:document-units="mm"
     inkscape:zoom="0.50835204"
     inkscape:cx="174.09195"
     inkscape:cy="469.16306"
     inkscape:window-width="1920"
     inkscape:window-height="1009"
     inkscape:window-x="-8"
     inkscape:window-y="-8"
     inkscape:window-maximized="1"
     inkscape:current-layer="layer3" /><defs
     id="defs1" /><g
     inkscape:groupmode="layer"
     id="layer2"
     inkscape:label="Layer 2"><path
       style="display:none;fill:none;stroke:#000000;stroke-width:0.264999"
       d="m 28.33829,182.2867 1.656133,-83.91079 6.256507,-0.92007 4.968401,-1.01208 7.084571,-3.772308 1.656135,-4.69238 0.920073,-5.15241 2.116172,-5.70447 1.840148,-4.69237 1.10409,-6.80855 1.472118,-4.23235 1.932157,-5.61245 4.140335,-7.82063 2.668214,-5.88848 2.484202,-4.50836 7.176579,-9.20074 6.900559,-5.88848 3.864311,-5.79647 4.324349,-0.82807 1.564127,0.73606 0.276021,1.93216 -0.36803,2.76022 -0.460036,1.56413 -0.276021,2.57621 -0.184015,2.39219 0.644051,2.4842 0.920075,1.56413 1.012082,2.39219 1.380111,2.85223 1.564127,2.66822 0.828067,1.74814 1.380111,1.74814 1.104086,0.55204 6.25651,-0.55204 2.20818,-3.22026 2.02416,-3.58829 2.66822,-5.06041 1.2881,-3.40427 0.73606,-3.22027 0.092,-3.49628 1.01208,-2.30018 3.7723,-1.01209 1.84015,-0.55204 2.85223,0.55204 1.01208,3.6803 1.56413,6.71655 -0.18401,3.49628 v 3.12825 l 0.18401,4.87639 1.01208,3.12826 1.10409,4.9684 1.47212,1.93215 3.12825,2.11618 4.78439,2.30018 1.65613,1.56413 34.23756,0.3775 7.93721,0.0325 -1.95178,128.524218 z"
       id="path1" /></g><g
     inkscape:groupmode="layer"
     id="layer3"
     inkscape:label="Layer 3"><path
       style="fill:none;stroke:#000000;stroke-width:0.264999"
       d="m 29.994423,98.309942 -3.710555,181.444098 151.457542,3.38309 5.20472,-226.665848 -42.45078,-0.530762 -1.47212,-1.656133 -3.03624,-1.380111 -5.15242,-3.128254 -1.2881,-2.300187 -1.93216,-7.728624 0.18402,-11.86896 -2.76023,-9.844794 -2.94424,-0.644052 -5.79646,1.656134 -1.10409,2.300186 0.36803,3.312267 -1.28811,4.416358 -2.11617,4.968402 -3.40427,6.164498 -2.3922,3.12825 -6.07249,0.460039 -1.288101,-0.552045 -2.208178,-3.496283 -4.140335,-8.372676 -1.012081,-2.024163 -0.36803,-1.932157 0.460036,-4.600371 0.920075,-1.932157 0.184015,-2.576208 -0.36803,-1.840148 -1.748142,-0.644052 -4.32435,0.920074 -3.680295,5.704461 -7.17658,5.980482 -7.084573,8.924722 -4.69238,9.844796 -4.508362,8.648697 -3.312269,9.660782 -1.380112,6.716543 -4.140334,10.948884 -0.644052,4.232341 -1.47212,5.152416 -6.992565,3.95632 z"
       id="path2" /></g></svg>
